<svg xmlns="http://www.w3.org/2000/svg" viewBox="0 0 87.4 87.4">
  <path d="M28.3 43.7c0 8.3 6.7 15 15 15s15-6.7 15-15-6.7-15-15-15-15 6.7-15 15zm28 0c0 7.2-5.8 13-13 13s-13-5.8-13-13 5.8-13 13-13 13 5.8 13 13zM47 8.9a2.1 2.1 0 0 1 2.3-1.7 36.7 36.7 0 0 1 30.9 30.9c.2 1.1-.6 2.1-1.7 2.3h-.3c-1 0-1.8-.7-2-1.7a32.67 32.67 0 0 0-27.5-27.5C47.6 11 46.8 10 47 8.9zm40.4 35a2 2 0 0 1-2 2H70.9c-1.1 0-2-.9-2-2s.9-2 2-2h14.5a2 2 0 0 1 2 2zm-7.2 5.7c-2.5 15.7-14.6 27.4-31 29.9h-.3c-1 0-1.8-.7-2-1.7-.2-1.1.6-2.1 1.7-2.3C63.2 73.3 74.1 62.9 76.3 49a2.1 2.1 0 0 1 2.3-1.7c1.1.2 1.8 1.2 1.6 2.3zM45.9 70.2v15.2c0 1.1-.9 2-2 2s-2-.9-2-2V70.2c0-1.1.9-2 2-2s2 .9 2 2zm-5.8 7.5c-.2 1-1 1.7-2 1.7h-.3C22.2 76.8 10.5 65.1 8 49.6c-.2-1.1.6-2.1 1.7-2.3 1.1-.2 2.1.6 2.3 1.7a31.62 31.62 0 0 0 26.4 26.5c1.1.1 1.8 1.1 1.7 2.2zM17.2 45.9H2c-1.1 0-2-.9-2-2s.9-2 2-2h15.2c1.1 0 2 .9 2 2s-.9 2-2 2zm-9.1-7.8C10.6 21.9 22.2 9.8 37.8 7.3c1.1-.2 2.1.6 2.3 1.6.2 1.1-.6 2.1-1.6 2.3C24.6 13.5 14.3 24.3 12 38.7c-.2 1-1 1.7-2 1.7h-.3c-1.1-.2-1.8-1.2-1.6-2.3zm33.4-21.6V2c0-1.1.9-2 2-2s2 .9 2 2v14.5c0 1.1-.9 2-2 2s-2-.9-2-2z" fill="#010101"/>
</svg>